# xmcd CD database file
#
# Track frame offsets:
#	180
#	48333
#	99930
#	169974
#	233639
#	272210
#
# Disc length: 3977 seconds
#
# Revision: 2
# Processed by: cddbd v1.4b41PL1 Copyright (c) Steve Scherf et al.
# Submitted via: Feurio! 1.52 - http://www.feurio.com
#
DISCID=470f8706
DTITLE=Grinder Switch - Live Tracks
DYEAR=1900
DGENRE=
TTITLE0=Kiss The Blues Goodbye
TTITLE1=You´re Gonna Miss Me When I´m Gone
TTITLE2=How The West Was Won
TTITLE3=Pickin´ The Blues/I Ain´t Got The Blues No More
TTITLE4=Stoop Down Baby
TTITLE5=Hideaway
EXTD=
EXTT0=
EXTT1=
EXTT2=
EXTT3=
EXTT4=
EXTT5=
PLAYORDER=
